<?xml version="1.0" encoding="UTF-8"?>
<svg width="500" height="500" viewBox="0 0 500 500" fill="none" xmlns="http://www.w3.org/2000/svg">
  <!-- Circle background -->
  <circle cx="250" cy="250" r="240" fill="#1A1A1A"/>
  <circle cx="250" cy="250" r="230" stroke="#FFA500" stroke-width="5" fill="none"/>
  
  <!-- Curved stem into globe -->
  <path d="M250 350 
           C250 350, 220 330, 220 310
           C220 290, 235 270, 250 270
           C265 270, 280 290, 280 310
           C280 330, 250 350, 250 350" 
        stroke="#FFA500" stroke-width="15" fill="none"/>
  
  <!-- Globe-shaped bulb -->
  <circle cx="250" cy="230" r="80" stroke="#FFA500" stroke-width="15" fill="none"/>
  
  <!-- Light bulb base -->
  <path d="M220 350 L220 370 L280 370 L280 350" stroke="#FFA500" stroke-width="15"/>
  <path d="M210 360 L290 360" stroke="#FFA500" stroke-width="15"/>
  
  <!-- Bar graph -->
  <rect x="210" y="220" width="25" height="30" fill="#FFA500"/>
  <rect x="245" y="190" width="25" height="60" fill="#FFA500"/>
  <rect x="280" y="160" width="25" height="90" fill="#FFA500"/>
</svg>
